<mxfile host="app.diagrams.net" modified="2023-09-24T14:03:46.650Z" agent="Mozilla/5.0 (Windows NT 10.0; Win64; x64) AppleWebKit/537.36 (KHTML, like Gecko) Chrome/116.0.0.0 Safari/537.36" etag="o8OLZA4r60J2ddPP9jrO" version="21.8.2" type="device">
  <diagram name="Page-1" id="vnqgwHBTWo7i5SShYJNg">
    <mxGraphModel dx="1397" dy="731" grid="1" gridSize="10" guides="1" tooltips="1" connect="1" arrows="1" fold="1" page="1" pageScale="1" pageWidth="827" pageHeight="1169" math="0" shadow="0">
      <root>
        <mxCell id="0" />
        <mxCell id="1" parent="0" />
        <mxCell id="G60hznb2TDmh4g9iwwSK-22" value="" style="edgeStyle=orthogonalEdgeStyle;rounded=0;orthogonalLoop=1;jettySize=auto;html=1;" edge="1" parent="1" source="G60hznb2TDmh4g9iwwSK-1" target="G60hznb2TDmh4g9iwwSK-19">
          <mxGeometry relative="1" as="geometry" />
        </mxCell>
        <mxCell id="G60hznb2TDmh4g9iwwSK-1" value="Image, Video Capture" style="whiteSpace=wrap;html=1;aspect=fixed;fillColor=#dae8fc;strokeColor=#6c8ebf;fontFamily=Helvetica;" vertex="1" parent="1">
          <mxGeometry x="70" y="240" width="80" height="80" as="geometry" />
        </mxCell>
        <mxCell id="G60hznb2TDmh4g9iwwSK-24" value="" style="edgeStyle=orthogonalEdgeStyle;rounded=0;orthogonalLoop=1;jettySize=auto;html=1;" edge="1" parent="1" source="G60hznb2TDmh4g9iwwSK-2" target="G60hznb2TDmh4g9iwwSK-20">
          <mxGeometry relative="1" as="geometry" />
        </mxCell>
        <mxCell id="G60hznb2TDmh4g9iwwSK-2" value="Image Preprocessing" style="whiteSpace=wrap;html=1;aspect=fixed;fillColor=#dae8fc;strokeColor=#6c8ebf;fontFamily=Helvetica;" vertex="1" parent="1">
          <mxGeometry x="190" y="240" width="80" height="80" as="geometry" />
        </mxCell>
        <mxCell id="G60hznb2TDmh4g9iwwSK-3" value="3D model from Segmented Objects" style="whiteSpace=wrap;html=1;aspect=fixed;fillColor=#dae8fc;strokeColor=#6c8ebf;fontFamily=Helvetica;" vertex="1" parent="1">
          <mxGeometry x="320" y="520" width="80" height="80" as="geometry" />
        </mxCell>
        <mxCell id="G60hznb2TDmh4g9iwwSK-4" value="Input" style="text;html=1;align=center;verticalAlign=middle;resizable=0;points=[];autosize=1;strokeColor=#6c8ebf;fillColor=#dae8fc;fontFamily=Helvetica;" vertex="1" parent="1">
          <mxGeometry x="85" y="210" width="50" height="30" as="geometry" />
        </mxCell>
        <mxCell id="G60hznb2TDmh4g9iwwSK-5" value="Output" style="text;html=1;align=center;verticalAlign=middle;resizable=0;points=[];autosize=1;strokeColor=#6c8ebf;fillColor=#dae8fc;fontFamily=Helvetica;" vertex="1" parent="1">
          <mxGeometry x="330" y="600" width="60" height="30" as="geometry" />
        </mxCell>
        <mxCell id="G60hznb2TDmh4g9iwwSK-6" value="" style="endArrow=classic;html=1;rounded=0;exitX=1;exitY=0.5;exitDx=0;exitDy=0;fillColor=#dae8fc;strokeColor=#6c8ebf;fontFamily=Helvetica;" edge="1" parent="1" source="G60hznb2TDmh4g9iwwSK-2" target="G60hznb2TDmh4g9iwwSK-10">
          <mxGeometry width="50" height="50" relative="1" as="geometry">
            <mxPoint x="430" y="305" as="sourcePoint" />
            <mxPoint x="320" y="280" as="targetPoint" />
          </mxGeometry>
        </mxCell>
        <mxCell id="G60hznb2TDmh4g9iwwSK-7" value="" style="endArrow=classic;html=1;rounded=0;exitX=1;exitY=0.5;exitDx=0;exitDy=0;fillColor=#dae8fc;strokeColor=#6c8ebf;fontFamily=Helvetica;" edge="1" parent="1" source="G60hznb2TDmh4g9iwwSK-1">
          <mxGeometry width="50" height="50" relative="1" as="geometry">
            <mxPoint x="180" y="305" as="sourcePoint" />
            <mxPoint x="190" y="280" as="targetPoint" />
          </mxGeometry>
        </mxCell>
        <mxCell id="G60hznb2TDmh4g9iwwSK-26" value="" style="edgeStyle=orthogonalEdgeStyle;rounded=0;orthogonalLoop=1;jettySize=auto;html=1;" edge="1" parent="1" source="G60hznb2TDmh4g9iwwSK-10" target="G60hznb2TDmh4g9iwwSK-21">
          <mxGeometry relative="1" as="geometry" />
        </mxCell>
        <mxCell id="G60hznb2TDmh4g9iwwSK-10" value="Object Segmentation" style="whiteSpace=wrap;html=1;aspect=fixed;fillColor=#dae8fc;strokeColor=#6c8ebf;" vertex="1" parent="1">
          <mxGeometry x="320" y="240" width="80" height="80" as="geometry" />
        </mxCell>
        <mxCell id="G60hznb2TDmh4g9iwwSK-18" value="" style="edgeStyle=orthogonalEdgeStyle;rounded=0;orthogonalLoop=1;jettySize=auto;html=1;fillColor=#dae8fc;strokeColor=#6c8ebf;" edge="1" parent="1" source="G60hznb2TDmh4g9iwwSK-11" target="G60hznb2TDmh4g9iwwSK-12">
          <mxGeometry relative="1" as="geometry" />
        </mxCell>
        <mxCell id="G60hznb2TDmh4g9iwwSK-11" value="NerF Algorithm" style="whiteSpace=wrap;html=1;aspect=fixed;fillColor=#dae8fc;strokeColor=#6c8ebf;" vertex="1" parent="1">
          <mxGeometry x="70" y="520" width="80" height="80" as="geometry" />
        </mxCell>
        <mxCell id="G60hznb2TDmh4g9iwwSK-16" value="" style="edgeStyle=orthogonalEdgeStyle;rounded=0;orthogonalLoop=1;jettySize=auto;html=1;fillColor=#dae8fc;strokeColor=#6c8ebf;" edge="1" parent="1" source="G60hznb2TDmh4g9iwwSK-12" target="G60hznb2TDmh4g9iwwSK-3">
          <mxGeometry relative="1" as="geometry" />
        </mxCell>
        <mxCell id="G60hznb2TDmh4g9iwwSK-12" value="Background Replacement" style="whiteSpace=wrap;html=1;aspect=fixed;fillColor=#dae8fc;strokeColor=#6c8ebf;" vertex="1" parent="1">
          <mxGeometry x="190" y="520" width="80" height="80" as="geometry" />
        </mxCell>
        <mxCell id="G60hznb2TDmh4g9iwwSK-23" value="" style="edgeStyle=orthogonalEdgeStyle;rounded=0;orthogonalLoop=1;jettySize=auto;html=1;" edge="1" parent="1" source="G60hznb2TDmh4g9iwwSK-19" target="G60hznb2TDmh4g9iwwSK-11">
          <mxGeometry relative="1" as="geometry" />
        </mxCell>
        <mxCell id="G60hznb2TDmh4g9iwwSK-19" value="Data from Different Viewpoints and Lighting Conditions" style="whiteSpace=wrap;html=1;aspect=fixed;fillColor=#dae8fc;strokeColor=#6c8ebf;" vertex="1" parent="1">
          <mxGeometry x="70" y="380" width="80" height="80" as="geometry" />
        </mxCell>
        <mxCell id="G60hznb2TDmh4g9iwwSK-25" value="" style="edgeStyle=orthogonalEdgeStyle;rounded=0;orthogonalLoop=1;jettySize=auto;html=1;" edge="1" parent="1" source="G60hznb2TDmh4g9iwwSK-20" target="G60hznb2TDmh4g9iwwSK-12">
          <mxGeometry relative="1" as="geometry" />
        </mxCell>
        <mxCell id="G60hznb2TDmh4g9iwwSK-20" value="Distortation Correction Alignment" style="whiteSpace=wrap;html=1;aspect=fixed;fillColor=#dae8fc;strokeColor=#6c8ebf;" vertex="1" parent="1">
          <mxGeometry x="190" y="380" width="80" height="80" as="geometry" />
        </mxCell>
        <mxCell id="G60hznb2TDmh4g9iwwSK-27" value="" style="edgeStyle=orthogonalEdgeStyle;rounded=0;orthogonalLoop=1;jettySize=auto;html=1;" edge="1" parent="1" source="G60hznb2TDmh4g9iwwSK-21" target="G60hznb2TDmh4g9iwwSK-3">
          <mxGeometry relative="1" as="geometry" />
        </mxCell>
        <mxCell id="G60hznb2TDmh4g9iwwSK-21" value="Meta&#39;s SAM Model" style="whiteSpace=wrap;html=1;aspect=fixed;fillColor=#dae8fc;strokeColor=#6c8ebf;" vertex="1" parent="1">
          <mxGeometry x="320" y="380" width="80" height="80" as="geometry" />
        </mxCell>
      </root>
    </mxGraphModel>
  </diagram>
</mxfile>
